# AST/ASF file generated using VICON BodyLanguage
# -----------------------------------------------
:version 1.10
:name VICON
:units
  mass 1.0
  length 0.45
  angle deg
:documentation
   .ast/.asf automatically generated from VICON data using
   VICON BodyBuilder and BodyLanguage model FoxedUp or BRILLIANT.MOD
:root
   order TX TY TZ RX RY RZ
   axis XYZ
   position 0 0 0  
   orientation 0 0 0 
:bonedata
  begin
     id 1 
     name lhipjoint
     direction 0.70531 -0.63749 0.310071 
     length 2.59589 
     axis 0 0 0  XYZ
  end
  begin
     id 2 
     name lfemur
     direction 0.34202 -0.939693 0  
     length 6.19797  
     axis 0 0 20  XYZ
    dof rx ry rz
    limits (-160.0 20.0)
           (-70.0 70.0)
           (-60.0 70.0)
  end
  begin
     id 3 
     name ltibia
     direction 0.34202 -0.939693 0   
     length 7.80054   
     axis 0 0 20   XYZ
    dof rx
    limits (-10.0 170.0)
  end
  begin
     id 4 
     name lfoot
     direction 0.0828572 -0.227648 0.970212   
     length 1.88124   
     axis -90 7.62852e-016 20   XYZ
    dof rx rz
    limits (-45.0 90.0)
           (-70.0 20.0)
  end
  begin
     id 5 
     name ltoes
     direction 1.53544e-011 -4.219e-011 1   
     length 0.948015   
     axis -90 7.62852e-016 20   XYZ
    dof rx
    limits (-90.0 20.0)
  end
  begin
     id 6 
     name rhipjoint
     direction -0.730062 -0.614543 0.29891   
     length 2.69282  
     axis 0 0 0  XYZ 
  end
  begin
     id 7 
     name rfemur
     direction -0.34202 -0.939693 0   
     length 5.86298   
     axis 0 0 -20   XYZ
    dof rx ry rz
    limits (-160.0 20.0)
           (-70.0 70.0)
           (-70.0 60.0)
  end
  begin
     id 8 
     name rtibia
     direction -0.34202 -0.939693 0   
     length 7.72374   
     axis 0 0 -20   XYZ
    dof rx
    limits (-10.0 170.0)
 end
 begin
     id 9 
     name rfoot
     direction -0.0967421 -0.265797 0.959163   
     length 2.02368  
     axis -90 -7.62852e-016 -20   XYZ
    dof rx rz
    limits (-45.0 90.0)
           (-20.0 70.0)
  end
  begin
     id 10 
     name rtoes
     direction -1.53524e-011 -4.21768e-011 1   
     length 1.01373   
     axis -90 -7.62852e-016 -20   XYZ
    dof rx
    limits (-90.0 20.0)
  end
  begin
     id 11 
     name lowerback
     direction 0.00561702 0.992801 -0.119643   
     length 2.02816   
     axis 0 0 0   XYZ
    dof rx ry rz
    limits (-20.0 45.0)
           (-30.0 30.0)
           (-30.0 30.0)
  end
  begin
     id 12 
     name upperback
     direction 0.00155544 0.995735 -0.0922509   
     length 2.02265   
     axis 0 0 0   XYZ
    dof rx ry rz
    limits (-20.0 45.0)
           (-30.0 30.0)
           (-30.0 30.0)
  end
  begin
     id 13 
     name thorax
     direction -0.000937535 0.999317 -0.0369292   
     length 2.04823   
     axis 0 0 0   XYZ
    dof rx ry rz
    limits (-20.0 45.0)
           (-30.0 30.0)
           (-30.0 30.0)
  end
  begin
     id 14 
     name lowerneck
     direction -0.0813151 0.981659 0.172436   
     length 1.8875   
     axis 0 0 0   XYZ
    dof rx ry rz
    limits (-20.0 45.0)
           (-30.0 30.0)
           (-30.0 30.0)
  end
  begin
     id 15 
     name upperneck
     direction 0.119359 0.955672 -0.269157   
     length 1.92801   
     axis 0 0 0   XYZ
    dof rx ry rz
    limits (-20.0 45.0)
           (-30.0 30.0)
           (-30.0 30.0)
  end
  begin
     id 16
     name head
     direction 0.0421007 0.992672 -0.113268  
     length 1.95809  
     axis 0 0 0   XYZ
    dof rx ry rz
    limits (-20.0 45.0)
           (-30.0 30.0)
           (-30.0 30.0)
  end
  begin
     id 17 
     name lclavicle
     direction 0.944093 0.32865 -0.0260136  
     length 3.84992  
     axis 0 0 0   XYZ
    dof ry rz
    limits (-20.0 10.0)
           (0.0 20.0)
  end
  begin
     id 18 
     name lhumerus
     direction 1 -4.48979e-011 -1.27712e-029   
     length 5.53593   
     axis 180 -30 -90   XYZ
    dof rx ry rz
    limits (-60.0 90.0)
           (-90.0 90.0)
           (-90.0 90.0)
  end
  begin
     id 19
     name lradius
     direction 1 -4.48966e-011 1.00051e-028   
     length 3.13345   
     axis 180 -30 -90   XYZ
    dof rx
    limits (-10.0 170.0)
  end
  begin
     id 20
     name lwrist
     direction 1 -4.4896e-011 2.56952e-028   
     length 1.56673   
     axis -5.12785e-016 90 90   XYZ
    dof ry
    limits (-180.0 0.0)
 end
  begin
     id 21 
     name lhand
     direction 1 -4.48934e-011 5.13905e-028   
     length 0.713374   
     axis -3.27915e-016 90 90   XYZ
    dof rx rz
    limits (-90.0 90.0)
           (-45.0 45.0)
  end
  begin
     id 22 
     name lfingers
     direction 1 -4.48973e-011 1.02781e-027   
     length 0.575141   
     axis -6.5583e-016 90 90   XYZ
    dof rx
    limits (0.0 90.0)
  end
  begin
     id 23
     name lthumb
     direction 0.707107 -6.34883e-011 0.707107   
     length 0.82579   
     axis -90 45 2.85299e-015   XYZ
    dof rx rz
    limits (-45.0 45.0)
           (-45.0 45.0)
  end
  begin
     id 24 
     name rclavicle
     direction -0.936895 0.34884 0.0232243   
     length 3.53304  
     axis 0 0 0   XYZ 
    dof ry rz
    limits (-10.0 20.0)
           (-20.0 0.0)
  end
  begin
     id 25 
     name rhumerus
     direction -1 -4.48965e-011 1.05514e-027  
     length 5.4685   
     axis 180 30 90   XYZ
    dof rx ry rz
    limits (-90.0 60.0)
           (-90.0 90.0)
           (-90.0 90.0)
  end
  begin
     id 26 
     name rradius
     direction -1 -4.48964e-011 -1.1079e-027   
     length 3.22411   
     axis 180 30 90   XYZ
    dof rx
    limits (-10.0 170.0)
  end
  begin
     id 27 
     name rwrist
     direction -1 -4.48973e-011 2.56952e-028   
     length 1.61206   
     axis -5.12785e-016 -90 -90   XYZ
    dof ry
    limits (-180.0 0.0)
  end
  begin
     id 28
     name rhand
     direction -1 -4.48957e-011 5.13905e-028   
     length 0.74528   
     axis -3.27915e-016 -90 -90   XYZ
    dof rx rz
    limits (-90.0 90.0)
           (-45.0 45.0)
  end
  begin
     id 29
     name rfingers
     direction -1 -4.4901e-011 1.02781e-027   
     length 0.600864   
     axis -6.5583e-016 -90 -90   XYZ
    dof rx
    limits (0.0 90.0)
  end
  begin
     id 30
     name rthumb
     direction -0.707107 -6.34972e-011 0.707107   
     length 0.862724   
     axis -90 -45 -2.85299e-015   XYZ
    dof rx rz
    limits (-45.0 45.0)
           (-45.0 45.0)
  end
:hierarchy
  begin
    root lhipjoint rhipjoint lowerback
    lhipjoint lfemur
    lfemur ltibia
    ltibia lfoot
    lfoot ltoes
    rhipjoint rfemur
    rfemur rtibia
    rtibia rfoot
    rfoot rtoes
    lowerback upperback
    upperback thorax
    thorax lowerneck lclavicle rclavicle
    lowerneck upperneck
    upperneck head
    lclavicle lhumerus
    lhumerus lradius
    lradius lwrist
    lwrist lhand lthumb
    lhand lfingers
    rclavicle rhumerus
    rhumerus rradius
    rradius rwrist
    rwrist rhand rthumb
    rhand rfingers
  end

#!OML:ASF G:\Work\Work\Patient Classification 1\Liu\Session 1\Liu.ASF
:FULLY-SPECIFIED
:DEGREES
162
root 9.82766 16.4268 -22.1241 5.02736 2.74789 -1.71278
lowerback -0.245344 -0.690022 2.08565
upperback -0.146494 -0.924064 1.04357
thorax -0.0282238 -0.462853 -0.102377
lowerneck -23.1336 -5.886 -13.2198
upperneck 21.3427 -6.66474 11.6451
head 11.6753 -2.66257 5.43074
rclavicle 1.00635e-015 1.39149e-015
rhumerus -46.6681 15.277 -91.4036
rradius 38.5232
rwrist -11.8434
rhand -12.5783 14.4716
rfingers 7.12502
rthumb 13.4997 -15.0708
lclavicle 1.00635e-015 1.39149e-015
lhumerus -34.1043 -16.3282 92.7482
lradius 34.8897
lwrist 5.34116
lhand -14.7857 31.4674
lfingers 7.12502
lthumb 11.3714 61.1391
rfemur -8.85776 0.715416 27.8192
rtibia 13.9022
rfoot -8.60956 -0.720173
rtoes -10.6469
lfemur -28.3718 10.1711 -19.6841
ltibia 77.4068
lfoot -7.99538 12.4445
ltoes 11.0084
163
root 9.82715 16.4157 -21.9504 5.18839 2.306 -1.79626
lowerback -0.182297 -0.483242 2.17368
upperback -0.303499 -0.643296 1.01285
thorax -0.220832 -0.325065 -0.181135
lowerneck -22.7804 -5.84588 -13.3218
upperneck 21.0988 -6.62078 11.7303
head 11.5168 -2.65027 5.48073
rclavicle -4.5969e-015 1.55052e-014
rhumerus -46.6295 15.871 -91.6087
rradius 38.8854
rwrist -11.938
rhand -12.4655 14.997
rfingers 7.12502
rthumb 13.6084 -14.5382
lclavicle -4.5969e-015 1.55052e-014
lhumerus -35.0483 -16.5744 93.1347
lradius 35.174
lwrist 5.62112
lhand -14.405 32.1205
lfingers 7.12502
lthumb 11.7385 61.7716
rfemur -8.45058 1.00085 27.9614
rtibia 14.0905
rfoot -9.29372 -0.721516
rtoes -10.7053
lfemur -30.3789 10.3862 -20.0132
ltibia 77.5858
lfoot -8.37584 12.6894
ltoes 10.0896
164
root 9.82914 16.4054 -21.7714 5.35937 1.92494 -1.66916
lowerback -0.211132 -0.263559 2.11657
upperback -0.389619 -0.349865 0.855519
thorax -0.287846 -0.179533 -0.31022
lowerneck -22.7114 -5.9079 -13.1682
upperneck 20.9402 -6.73424 11.6371
head 11.451 -2.70108 5.39224
rclavicle -6.28657e-015 -7.7526e-015
rhumerus -46.5114 16.3939 -91.881
rradius 39.2615
rwrist -12.2473
rhand -13.4078 16.3008
rfingers 7.12502
rthumb 12.7001 -13.2931
lclavicle -6.28657e-015 -7.7526e-015
lhumerus -35.883 -16.988 93.4189
lradius 35.516
lwrist 5.98402
lhand -14.3501 32.1128
lfingers 7.12502
lthumb 11.7915 61.7609
rfemur -8.23895 0.968562 27.8524
rtibia 14.6703
rfoot -10.1647 -0.488293
rtoes -11.1376
lfemur -32.2949 10.4991 -20.6014
ltibia 77.4597
lfoot -9.02138 12.4713
ltoes 5.87064
165
root 9.83109 16.3828 -21.5982 5.39625 1.56411 -1.63939
lowerback -0.121295 -0.0565219 2.21234
upperback -0.330605 -0.0727169 0.679633
thorax -0.27235 -0.0410213 -0.543952
lowerneck -22.7642 -5.98513 -12.9888
upperneck 20.8021 -6.87743 11.5937
head 11.4213 -2.75379 5.3143
rclavicle 6.34869e-015 3.57812e-015
rhumerus -46.178 16.8536 -92.114
rradius 39.6197
rwrist -12.4251
rhand -13.8348 16.8081
rfingers 7.12502
rthumb 12.2884 -12.8109
lclavicle 6.34869e-015 3.57812e-015
lhumerus -36.4406 -17.3029 93.5259
lradius 35.8042
lwrist 6.18821
lhand -14.5024 31.705
lfingers 7.12502
lthumb 11.6447 61.3614
rfemur -8.02391 0.955447 27.855
rtibia 15.5008
rfoot -11.189 -0.280024
rtoes -12.1964
lfemur -34.0206 10.6043 -21.027
ltibia 77.2518
lfoot -9.4499 12.2945
ltoes 3.70243
166
root 9.83207 16.343 -21.4278 5.29058 1.27201 -1.71542
lowerback 0.112114 0.0881231 2.38533
upperback -0.297998 0.126584 0.57225
thorax -0.36411 0.0572967 -0.751324
lowerneck -22.6212 -5.9464 -13.0688
upperneck 20.7406 -6.86492 11.8059
head 11.3821 -2.73345 5.41092
rclavicle 2.31708e-015 4.07509e-015
rhumerus -45.8967 17.4447 -92.3502
rradius 39.9257
rwrist -12.5742
rhand -13.637 16.6203
rfingers 7.12502
rthumb 12.4791 -12.9871
lclavicle 2.31708e-015 4.07509e-015
lhumerus -37.1832 -17.351 93.6427
lradius 36.0526
lwrist 6.28112
lhand -14.6277 31.5668
lfingers 7.12502
lthumb 11.5239 61.23
rfemur -7.68263 1.29248 28.0139
rtibia 16.3853
rfoot -12.2573 -0.477985
rtoes -13.0702
lfemur -35.5997 10.5866 -21.2889
ltibia 77.014
lfoot -10.0413 12.0169
ltoes 3.0082
167
root 9.83381 16.3004 -21.2546 5.27561 1.11647 -1.91078
lowerback 0.2696 0.191806 2.61637
upperback -0.289729 0.270585 0.558577
thorax -0.438465 0.127794 -0.895844
lowerneck -22.8033 -5.9543 -13.2921
upperneck 20.8275 -6.85817 12.093
head 11.4701 -2.70902 5.56514
rclavicle -1.52195e-015 -1.18277e-014
rhumerus -45.5279 18.042 -92.4258
rradius 40.3551
rwrist -12.6768
rhand -13.9961 16.9167
rfingers 7.12502
rthumb 12.1329 -12.7115
lclavicle -1.52195e-015 -1.18277e-014
lhumerus -37.9179 -17.3418 93.8116
lradius 36.3472
lwrist 6.47748
lhand -14.7569 31.6098
lfingers 7.12502
lthumb 11.3992 61.2799
rfemur -7.39538 1.51921 28.3385
rtibia 17.2719
rfoot -13.2985 -0.766316
rtoes -14.4675
lfemur -37.319 10.4117 -21.429
ltibia 76.6609
lfoot -10.8072 11.5002
ltoes 1.21823
168
root 9.83445 16.2578 -21.0874 5.39824 1.07199 -2.27552
lowerback 0.406412 0.267401 2.9843
upperback -0.342287 0.379822 0.625042
thorax -0.563443 0.179159 -1.03529
lowerneck -22.9802 -5.99342 -13.3589
upperneck 20.8405 -6.86606 12.09
head 11.5122 -2.71288 5.5741
rclavicle -6.33626e-016 4.02539e-015
rhumerus -45.1919 18.3984 -92.2432
rradius 41.0339
rwrist -12.1685
rhand -13.5665 16.2562
rfingers 7.12502
rthumb 12.5471 -13.347
lclavicle -6.33626e-016 4.02539e-015
lhumerus -38.5689 -17.3765 94.0602
lradius 36.5538
lwrist 6.91814
lhand -14.7264 32.0723
lfingers 7.12502
lthumb 11.4286 61.7408
rfemur -7.23143 1.23623 28.8349
rtibia 18.1385
rfoot -14.242 -0.718915
rtoes -16.7023
lfemur -39.2178 10.1768 -21.3876
ltibia 76.1207
lfoot -11.1037 11.289
ltoes -0.39517
169
root 9.83411 16.2167 -20.9265 5.48549 1.1317 -2.53579
lowerback 0.631973 0.288595 3.27302
upperback -0.445998 0.422095 0.646589
thorax -0.79284 0.194712 -1.17687
lowerneck -22.8687 -5.97616 -13.2693
upperneck 20.7371 -6.84436 11.9622
head 11.4395 -2.71406 5.50895
rclavicle -3.40419e-015 -7.10655e-015
rhumerus -45.241 18.8888 -92.434
rradius 41.7502
rwrist -13.122
rhand -13.2523 15.4051
rfingers 7.12502
rthumb 12.85 -14.1793
lclavicle -3.40419e-015 -7.10655e-015
lhumerus -39.3433 -17.4 94.2863
lradius 36.6653
lwrist 7.3
lhand -14.5601 32.4351
lfingers 7.12502
lthumb 11.589 62.0947
rfemur -6.94852 1.06398 29.199
rtibia 18.805
rfoot -15.223 -0.758987
rtoes -17.9141
lfemur -40.902 9.7911 -21.4095
ltibia 75.2495
lfoot -11.477 10.9963
ltoes -0.133251
170
root 9.83438 16.1757 -20.7741 5.38654 0.957729 -2.70489
lowerback 1.2683 0.389507 3.43416
upperback -0.528007 0.587809 0.623136
thorax -1.2249 0.268886 -1.29886
lowerneck -22.7406 -5.94924 -13.2166
upperneck 20.5267 -6.82728 11.9773
head 11.3325 -2.70334 5.50139
rclavicle 1.77353e-015 -7.47927e-015
rhumerus -44.9255 19.2413 -92.4391
rradius 42.1467
rwrist -13.1997
rhand -12.9009 15.504
rfingers 7.12502
rthumb 13.1887 -14.0588
lclavicle 1.77353e-015 -7.47927e-015
lhumerus -40.1171 -17.387 94.4209
lradius 36.6932
lwrist 7.15787
lhand -14.5638 31.8738
lfingers 7.12502
lthumb 11.5854 61.5335
rfemur -6.51397 1.7176 29.4976
rtibia 19.3323
rfoot -15.9858 -1.41496
rtoes -18.4523
lfemur -42.2377 9.54045 -21.4664
ltibia 74.0573
lfoot -11.8526 10.8945
ltoes 0.628843
171
root 9.85058 16.1507 -20.5681 5.30815 0.830565 -2.5067
lowerback 1.09818 0.479632 3.41609
upperback -0.352947 0.694594 0.494052
thorax -0.9433 0.328314 -1.42071
lowerneck -22.7883 -5.98798 -13.2938
upperneck 20.3194 -6.84942 12.0508
head 11.2738 -2.70849 5.53147
rclavicle -6.98542e-015 -9.81499e-015
rhumerus -44.2545 19.7869 -92.2996
rradius 42.4543
rwrist -13.3244
rhand -13.2901 16.2601
rfingers 7.12502
rthumb 12.8135 -13.3266
lclavicle -6.98542e-015 -9.81499e-015
lhumerus -40.6409 -17.253 94.5309
lradius 36.6445
lwrist 7.10292
lhand -14.7643 31.196
lfingers 7.12502
lthumb 11.3921 60.8665
rfemur -5.80982 0.99565 29.2001
rtibia 19.7406
rfoot -16.793 -0.742641
rtoes -18.12
lfemur -42.8857 9.17717 -21.9714
ltibia 72.333
lfoot -12.4857 10.6585
ltoes -0.531563
172
root 9.8597 16.1191 -20.3826 5.4694 0.572022 -2.62212
lowerback 0.843113 0.563687 3.5851
upperback -0.190347 0.793631 0.492737
thorax -0.626286 0.384014 -1.51431
lowerneck -23.066 -6.06772 -13.3235
upperneck 20.1491 -6.89323 12.0284
head 11.2692 -2.72389 5.51318
rclavicle -2.26583e-015 -5.59082e-015
rhumerus -43.5214 20.359 -92.0733
rradius 42.9945
rwrist -13.5491
rhand -13.3022 16.1121
rfingers 7.12502
rthumb 12.8019 -13.4753
lclavicle -2.26583e-015 -5.59082e-015
lhumerus -40.9531 -16.9687 94.5508
lradius 36.6442
lwrist 7.36249
lhand -14.8552 31.0809
lfingers 7.12502
lthumb 11.3044 60.7562
rfemur -5.39352 0.579642 29.3039
rtibia 20.0551
rfoot -17.6026 -0.297139
rtoes -17.5095
lfemur -43.9791 8.94513 -22.1204
ltibia 70.4706
lfoot -13.74 8.67001
ltoes -2.67288
173
root 9.86232 16.0846 -20.2043 5.66685 0.133575 -2.92021
lowerback 0.72547 0.706745 3.8224
upperback -0.0992806 0.979068 0.538848
thorax -0.454051 0.480042 -1.59951
lowerneck -23.1457 -6.09891 -13.2121
upperneck 19.8221 -6.8956 11.8719
head 11.1513 -2.73096 5.42144
rclavicle 9.99359e-015 -4.9075e-015
rhumerus -42.8274 20.7799 -91.8506
rradius 43.5267
rwrist -13.6058
rhand -12.5172 15.4374
rfingers 7.12502
rthumb 13.5586 -14.1011
lclavicle 9.99359e-015 -4.9075e-015
lhumerus -41.3268 -16.8273 94.6144
lradius 36.6311
lwrist 7.55598
lhand -14.8695 31.2174
lfingers 7.12502
lthumb 11.2906 60.8936
rfemur -4.79948 0.547705 29.6574
rtibia 19.9125
rfoot -18.0591 -0.122764
rtoes -16.903
lfemur -45.0984 8.86614 -21.9816
ltibia 68.4079
lfoot -11.9929 11.8111
ltoes -2.3631
174
root 9.87028 16.0523 -20.0173 5.71238 -0.258659 -3.0555
lowerback 0.747835 0.845578 3.93086
upperback -0.0278005 1.16424 0.563307
thorax -0.381278 0.574551 -1.63632
lowerneck -22.9129 -6.09503 -13.2223
upperneck 19.3668 -6.8545 11.7848
head 10.9303 -2.72901 5.38217
rclavicle -7.44977e-015 -5.77718e-015
rhumerus -42.2085 21.3351 -91.6868
rradius 43.7057
rwrist -13.6901
rhand -12.4708 15.1981
rfingers 7.12502
rthumb 13.6032 -14.3374
lclavicle -7.44977e-015 -5.77718e-015
lhumerus -41.7961 -16.7662 94.8608
lradius 36.4642
lwrist 7.94879
lhand -15.2419 31.3447
lfingers 7.12502
lthumb 10.9315 61.0401
rfemur -3.8961 0.793555 29.807
rtibia 19.5988
rfoot -18.2304 -0.0134803
rtoes -14.7863
lfemur -45.835 8.6789 -21.9527
ltibia 66.1176
lfoot -14.3023 8.02522
ltoes -3.75896
175
root 9.88129 16.0578 -19.8261 5.76564 -0.47854 -3.10244
lowerback 0.67736 0.928988 4.01814
upperback 0.0644485 1.26999 0.561516
thorax -0.239103 0.631078 -1.68541
lowerneck -22.8357 -6.06042 -13.4447
upperneck 19.0721 -6.76331 11.9838
head 10.812 -2.68254 5.50242
rclavicle -3.77536e-015 -1.54058e-015
rhumerus -41.4961 22.1242 -91.5809
rradius 43.6081
rwrist -14.0867
rhand -13.4208 15.9953
rfingers 7.12502
rthumb 12.6875 -13.5993
lclavicle -3.77536e-015 -1.54058e-015
lhumerus -42.1225 -16.4657 94.9256
lradius 36.3044
lwrist 8.35441
lhand -15.1479 31.9281
lfingers 7.12502
lthumb 11.0221 61.6187
rfemur -2.80512 0.948879 29.856
rtibia 19.0443
rfoot -18.3723 -0.0927598
rtoes -13.4906
lfemur -46.1871 8.45352 -21.9922
ltibia 63.3056
lfoot -14.6008 6.7037
ltoes -2.16706
176
root 9.88885 16.035 -19.6373 5.7931 -0.69208 -3.26646
lowerback 0.632209 1.03271 4.21773
upperback 0.16359 1.4043 0.529269
thorax -0.0985028 0.702135 -1.8286
lowerneck -23.075 -6.03797 -13.5517
upperneck 19.1199 -6.71206 12.1654
head 10.8781 -2.63881 5.60033
rclavicle -1.4236e-014 -2.19595e-015
rhumerus -40.7052 22.7194 -91.483
rradius 43.6243
rwrist -14.5988
rhand -13.9842 16.9569
rfingers 7.12502
rthumb 12.1444 -12.6706
lclavicle -1.4236e-014 -2.19595e-015
lhumerus -42.3054 -15.9711 94.6627
lradius 36.1256
lwrist 8.31726
lhand -14.532 32.4478
lfingers 7.12502
lthumb 11.6161 62.1058
rfemur -1.64663 1.11113 30.0891
rtibia 18.3531
rfoot -18.4399 -0.519711
rtoes -14.0222
lfemur -46.4913 8.12825 -21.8262
ltibia 60.3378
lfoot -14.3994 6.46254
ltoes -2.80776
